# xmcd
#
# Track frame offsets: 
#        150
#        16130
#        31985
#        54659
#        69799
#        86998
#        100676
#        121277
#        132781
#        148508
#        163630
#        176408
#        186427
#        200109
#        215138
#        234424
#        247539
#        264078
#        274711
#        289318
#
# Disc length: 4036 seconds
#
# Revision: 3
# Processed by: cddbd v1.5.2PL0 Copyright (c) Steve Scherf et al.
# Submitted via: ExactAudioCopy v0.99pb5
#
DISCID=1b0fc214
DTITLE=Various Artist - 100 Oldie Hits CD3
DYEAR=2008
DGENRE=Oldies
TTITLE0=Paper Lace - Billy,Don´t Be A Hero
TTITLE1=The Three Degrees - Take Good Care Of Yourself
TTITLE2=Thelma Houston - Don't Leave Me This Way
TTITLE3=The Tymes - Ms. Grace
TTITLE4=Charlene - I've Never Been To Me
TTITLE5=Middle Of The Road - Tweedle Dee, Tweedle Dum
TTITLE6=Santabarbara - Charly
TTITLE7=Edison Lighthouse - Love Grows
TTITLE8=The Trammps - Hold Back The Night
TTITLE9=Billie Jo Spears - Blanket On The Ground
TTITLE10=Billie Jo Spears - What I've Got In Mind
TTITLE11=Marc Bolan and T. Rex - Solid Gold, Easy Action
TTITLE12=Barry Blue - Dancing On A Saturday Night
TTITLE13=Bay City Rollers - Shang-A-Lang
TTITLE14=Miracles - Love Machine
TTITLE15=Chicory Tip - Son Of My Father
TTITLE16=Johnny Wakelin - Black Superman
TTITLE17=Gary Lewis &The Playboys - My Heart's A Symphony
TTITLE18=Rufus Thomas - Do The Funky Chicken
TTITLE19=Clarence Carter - Patches I'm Depending On You
EXTD=
EXTT0=
EXTT1=
EXTT2=
EXTT3=
EXTT4=
EXTT5=
EXTT6=
EXTT7=
EXTT8=
EXTT9=
EXTT10=
EXTT11=
EXTT12=
EXTT13=
EXTT14=
EXTT15=
EXTT16=
EXTT17=
EXTT18=
EXTT19=
PLAYORDER=
